# xmcd
#
# Track frame offsets:
# 150
# 4639
# 7895
# 13130
# 18644
# 23027
# 28018
# 33725
# 40079
# 46366
# 51575
# 56906
# 61852
# 66717
# 71681
# 76956
# 81410
# 86760
# 91559
# 96343
# 101863
# 106917
#
# Disc length: 1480 seconds
#
#
# Revision: 0
# Processed by: cddbd v1.5.1PL0 Copyright (c) Steve Scherf et al.
# Submitted via: FreeRIP 2.90 
#
DISCID=2605c616
DTITLE=Maria Ana Gligor - Cantece de tulnic din Tara Motilor
DYEAR=2000
DGENRE=populara
TTITLE0=Chemare in Tara Motilor
TTITLE1=Sus in Muntii Apuseni
TTITLE2=Chemarea Iancului
TTITLE3=Veniti la Alba-Iulia
TTITLE4=Vin ciobanii la Campeni
TTITLE5=Pe Aries de dimineata
TTITLE6=Chemarea oilor
TTITLE7=Jalea Poenarului
TTITLE8=Hai sa facem claile
TTITLE9=Cantecul lui Fleandura
TTITLE10=Joaca fata Soncului
TTITLE11=Chemarea dragutului
TTITLE12=Buna seara fetelor
TTITLE13=Fuge fata la dragut
TTITLE14=Jocul miresei
TTITLE15=Inger ingeras
TTITLE16=La cositul fanului
TTITLE17=Leganatul pruncului
TTITLE18=Bate toaca de tri ori
TTITLE19=Doamne milueste
TTITLE20=Pelisanul Sohodolului
TTITLE21=Joc in sura la Toluta
EXTD=
EXTT0=
EXTT1=
EXTT2=
EXTT3=
EXTT4=
EXTT5=
EXTT6=
EXTT7=
EXTT8=
EXTT9=
EXTT10=
EXTT11=
EXTT12=
EXTT13=
EXTT14=
EXTT15=
EXTT16=
EXTT17=
EXTT18=
EXTT19=
EXTT20=
EXTT21=
PLAYORDER=
